<?xml version="1.0" encoding="utf-8"?>
<!-- Generator: Adobe Illustrator 19.2.1, SVG Export Plug-In . SVG Version: 6.00 Build 0)  -->
<svg version="1.1" id="Layer_1" xmlns="http://www.w3.org/2000/svg" xmlns:xlink="http://www.w3.org/1999/xlink" x="0px" y="0px"
	 viewBox="0 0 50 150" style="enable-background:new 0 0 50 150;" xml:space="preserve">
<style type="text/css">
	.st0{opacity:0.9;}
	.st1{fill:#FFFFFF;}
	.st2{fill:#1E1E1E;}
	.st3{fill:none;}
	.st4{font-family:'MyriadPro-Regular';}
	.st5{font-size:8px;}
	.st6{fill:#EAEAEA;}
	.st7{opacity:0.47;}
	.st8{opacity:0.47;fill:#EAEAEA;}
</style>
<g>
	<g class="st0">
		<path class="st1" d="M50,46.3c0,2.2-1.8,4-4,4H4c-2.2,0-4-1.8-4-4v-42c0-2.2,1.8-4,4-4h42c2.2,0,4,1.8,4,4V46.3z"/>
	</g>
</g>
<g>
	<g class="st0">
		<path class="st2" d="M50,96.3c0,2.2-1.8,4-4,4H4c-2.2,0-4-1.8-4-4v-42c0-2.2,1.8-4,4-4h42c2.2,0,4,1.8,4,4V96.3z"/>
	</g>
</g>
<rect x="3.3" y="36.8" class="st3" width="43.4" height="6.4"/>
<text transform="matrix(1 0 0 1 3.2862 42.5237)" class="st4 st5">Environment</text>
<rect x="3.3" y="86.9" class="st3" width="43.4" height="6.4"/>
<text transform="matrix(1 0 0 1 3.2862 92.5536)" class="st6 st4 st5">Environment</text>
<g class="st7">
	<g class="st0">
		<path class="st2" d="M50,146.3c0,2.2-1.8,4-4,4H4c-2.2,0-4-1.8-4-4v-42c0-2.2,1.8-4,4-4h42c2.2,0,4,1.8,4,4V146.3z"/>
	</g>
</g>
<path d="M24.4,7.8c0.4,0,0.8,0,1.1,0c0,0.2,0.1,0.5,0.1,0.7c-0.4,1.8,0.4,2.9,2,3.6c0.9,0.4,1.8,1.1,2.7,1.6
	c0.7,0.3,0.8,0.8,0.8,1.5c0,3,0,6,0,8.9c0,0.6,0.2,0.9,0.8,1.1c1.3,0.3,2.6,0.7,3.9,1.1c1,0.3,1.5,0.9,1.5,2c0,1.1,0,2.3,0,3.4
	c0,1.5-0.5,1.9-1.9,1.9c-5.5,0-11,0-16.4,0c-1.5,0-3.1,0-4.6,0c-1.2,0-1.7-0.5-1.7-1.7c0-1.2,0-2.4,0-3.5c0-1,0.4-1.6,1.4-1.9
	c1.6-0.5,3.1-1,4.7-1.5c0-3.2,0-6.3,0-9.5c0-0.8,0.2-1.3,0.9-1.7c1.3-0.8,2.6-1.7,3.9-2.5c0.6-0.4,0.9-0.8,0.8-1.5
	C24.4,9.2,24.4,8.5,24.4,7.8z M29.9,32.3c0-5.6,0-11.1,0-16.6c0-0.2-0.1-0.5-0.3-0.6c-1.3-0.8-2.6-1.5-3.9-2.3c0,6.6,0,13.1,0,19.6
	C27.1,32.3,28.4,32.3,29.9,32.3z M19.5,23.2c1.4-0.9,2.7-1.8,4-2.6c1-0.7,1.1-0.8,0.7-2.2c-1.2,0.8-2.4,1.7-3.6,2.4
	C19.6,21.4,19.2,22,19.5,23.2z M19.5,17.1c1.3-0.9,2.6-1.8,4-2.6c0.9-0.5,1-1.2,0.8-2.2c-1.3,0.9-2.5,1.8-3.8,2.5
	C19.5,15.3,19.2,16,19.5,17.1z M24.2,24.6c-1.3,0.9-2.5,1.8-3.8,2.5c-0.9,0.5-1.2,1.2-0.9,2.3c1.3-0.8,2.5-1.7,3.7-2.4
	C24.2,26.4,24.6,25.8,24.2,24.6z M24.3,21.5c-1.3,0.9-2.5,1.8-3.9,2.5c-1,0.5-1.1,1.3-0.9,2.3c1.3-0.9,2.5-1.8,3.8-2.5
	C24.2,23.3,24.6,22.7,24.3,21.5z M19.5,20.2c1.4-0.9,2.7-1.8,4-2.6c0.9-0.5,1-1.2,0.7-2.1c-1.3,0.9-2.5,1.7-3.7,2.4
	C19.6,18.3,19.2,19,19.5,20.2z M36.3,29.8C36.1,29,36,28.2,35.7,28c-1.2-0.5-2.5-0.8-3.8-1.2c-0.1,0.1-0.2,0.1-0.3,0.2
	c0.2,0.5,0.2,1.3,0.6,1.5C33.4,29,34.7,29.3,36.3,29.8z M31.6,29.5c0.2,0.8,0.2,1.6,0.5,1.8c1.2,0.5,2.6,0.9,3.9,1.3
	c0.1-0.1,0.2-0.2,0.3-0.2c-0.2-0.5-0.3-1.3-0.7-1.5C34.4,30.2,33.2,29.9,31.6,29.5z M17,30.7c1.3-0.1,1.3-0.3,1-1.6
	C16.9,29.1,16.8,29.8,17,30.7z M17,28.3c1.4,0.1,1.2-0.8,1.1-1.6C17,26.6,16.8,27.3,17,28.3z M15.2,28.9c1.2-0.2,1.3-0.2,1-1.6
	C15,27.5,15,27.5,15.2,28.9z M16.3,29.7c-1.3,0.2-1.4,0.4-1,1.6C16.6,31.4,16.4,30.5,16.3,29.7z M14.4,30.3c-1.1,0-1.3,0.6-1,1.5
	C14.5,31.9,14.6,31.8,14.4,30.3z M14.4,27.9c-1.3,0.2-1.4,0.4-1,1.6C14.7,29.5,14.5,28.7,14.4,27.9z"/>
<path class="st6" d="M25,57.8c0.4,0,0.8,0,1.1,0c0,0.2,0.1,0.5,0.1,0.7c-0.4,1.8,0.4,2.9,2,3.6c0.9,0.4,1.8,1.1,2.7,1.6
	c0.7,0.3,0.8,0.8,0.8,1.5c0,3,0,6,0,8.9c0,0.6,0.2,0.9,0.8,1.1c1.3,0.3,2.6,0.7,3.9,1.1c1,0.3,1.5,0.9,1.5,2c0,1.1,0,2.3,0,3.4
	c0,1.5-0.5,1.9-1.9,1.9c-5.5,0-11,0-16.4,0c-1.5,0-3.1,0-4.6,0c-1.2,0-1.7-0.5-1.7-1.7c0-1.2,0-2.4,0-3.5c0-1,0.4-1.6,1.4-1.9
	c1.6-0.5,3.1-1,4.7-1.5c0-3.2,0-6.3,0-9.5c0-0.8,0.2-1.3,0.9-1.7c1.3-0.8,2.6-1.7,3.9-2.5c0.6-0.4,0.9-0.8,0.8-1.5
	C25,59.2,25,58.5,25,57.8z M30.5,82.4c0-5.6,0-11.1,0-16.6c0-0.2-0.1-0.5-0.3-0.6c-1.3-0.8-2.6-1.5-3.9-2.3c0,6.6,0,13.1,0,19.6
	C27.7,82.4,29,82.4,30.5,82.4z M20.1,73.2c1.4-0.9,2.7-1.8,4-2.6c1-0.7,1.1-0.8,0.7-2.2c-1.2,0.8-2.4,1.7-3.6,2.4
	C20.2,71.4,19.8,72.1,20.1,73.2z M20.1,67.1c1.3-0.9,2.6-1.8,4-2.6c0.9-0.5,1-1.2,0.8-2.2c-1.3,0.9-2.5,1.8-3.8,2.5
	C20.1,65.3,19.8,66,20.1,67.1z M24.8,74.6c-1.3,0.9-2.5,1.8-3.8,2.5c-0.9,0.5-1.2,1.2-0.9,2.3c1.3-0.8,2.5-1.7,3.7-2.4
	C24.8,76.4,25.2,75.8,24.8,74.6z M24.9,71.5c-1.3,0.9-2.5,1.8-3.9,2.5c-1,0.5-1.1,1.3-0.9,2.3c1.3-0.9,2.5-1.8,3.8-2.5
	C24.8,73.3,25.2,72.7,24.9,71.5z M20.1,70.2c1.4-0.9,2.7-1.8,4-2.6c0.9-0.5,1-1.2,0.7-2.1c-1.3,0.9-2.5,1.7-3.7,2.4
	C20.2,68.4,19.8,69,20.1,70.2z M36.9,79.8c-0.2-0.8-0.3-1.6-0.6-1.8c-1.2-0.5-2.5-0.8-3.8-1.2c-0.1,0.1-0.2,0.1-0.3,0.2
	c0.2,0.5,0.2,1.3,0.6,1.5C34,79.1,35.3,79.3,36.9,79.8z M32.2,79.5c0.2,0.8,0.2,1.6,0.5,1.8c1.2,0.5,2.6,0.9,3.9,1.3
	c0.1-0.1,0.2-0.2,0.3-0.2c-0.2-0.5-0.3-1.3-0.7-1.5C35,80.2,33.8,80,32.2,79.5z M17.6,80.7c1.3-0.1,1.3-0.3,1-1.6
	C17.5,79.2,17.4,79.8,17.6,80.7z M17.6,78.3c1.4,0.1,1.2-0.8,1.1-1.6C17.6,76.7,17.4,77.3,17.6,78.3z M15.8,78.9
	c1.2-0.2,1.3-0.2,1-1.6C15.6,77.6,15.6,77.6,15.8,78.9z M16.9,79.8c-1.3,0.2-1.4,0.4-1,1.6C17.2,81.4,17,80.5,16.9,79.8z M15,80.4
	c-1.1,0-1.3,0.6-1,1.5C15.1,81.9,15.2,81.8,15,80.4z M15,77.9c-1.3,0.2-1.4,0.4-1,1.6C15.3,79.5,15.1,78.7,15,77.9z"/>
<path class="st8" d="M24.7,107.9c0.4,0,0.8,0,1.1,0c0,0.2,0.1,0.5,0.1,0.7c-0.4,1.8,0.4,2.9,2,3.6c0.9,0.4,1.8,1.1,2.7,1.6
	c0.7,0.3,0.8,0.8,0.8,1.5c0,3,0,6,0,8.9c0,0.6,0.2,0.9,0.8,1.1c1.3,0.3,2.6,0.7,3.9,1.1c1,0.3,1.5,0.9,1.5,2c0,1.1,0,2.3,0,3.4
	c0,1.5-0.5,1.9-1.9,1.9c-5.5,0-11,0-16.4,0c-1.5,0-3.1,0-4.6,0c-1.2,0-1.7-0.5-1.7-1.7c0-1.2,0-2.4,0-3.5c0-1,0.4-1.6,1.4-1.9
	c1.6-0.5,3.1-1,4.7-1.5c0-3.2,0-6.3,0-9.5c0-0.8,0.2-1.3,0.9-1.7c1.3-0.8,2.6-1.7,3.9-2.5c0.6-0.4,0.9-0.8,0.8-1.5
	C24.7,109.2,24.7,108.6,24.7,107.9z M30.2,132.4c0-5.6,0-11.1,0-16.6c0-0.2-0.1-0.5-0.3-0.6c-1.3-0.8-2.6-1.5-3.9-2.3
	c0,6.6,0,13.1,0,19.6C27.4,132.4,28.7,132.4,30.2,132.4z M19.8,123.3c1.4-0.9,2.7-1.8,4-2.6c1-0.7,1.1-0.8,0.7-2.2
	c-1.2,0.8-2.4,1.7-3.6,2.4C19.9,121.4,19.5,122.1,19.8,123.3z M19.8,117.2c1.3-0.9,2.6-1.8,4-2.6c0.9-0.5,1-1.2,0.8-2.2
	c-1.3,0.9-2.5,1.8-3.8,2.5C19.8,115.4,19.5,116,19.8,117.2z M24.5,124.6c-1.3,0.9-2.5,1.8-3.8,2.5c-0.9,0.5-1.2,1.2-0.9,2.3
	c1.3-0.8,2.5-1.7,3.7-2.4C24.5,126.5,24.9,125.9,24.5,124.6z M24.6,121.5c-1.3,0.9-2.5,1.8-3.9,2.5c-1,0.5-1.1,1.3-0.9,2.3
	c1.3-0.9,2.5-1.8,3.8-2.5C24.5,123.4,24.9,122.7,24.6,121.5z M19.8,120.2c1.4-0.9,2.7-1.8,4-2.6c0.9-0.5,1-1.2,0.7-2.1
	c-1.3,0.9-2.5,1.7-3.7,2.4C19.9,118.4,19.5,119,19.8,120.2z M36.6,129.8c-0.2-0.8-0.3-1.6-0.6-1.8c-1.2-0.5-2.5-0.8-3.8-1.2
	c-0.1,0.1-0.2,0.1-0.3,0.2c0.2,0.5,0.2,1.3,0.6,1.5C33.7,129.1,35,129.4,36.6,129.8z M31.9,129.5c0.2,0.8,0.2,1.6,0.5,1.8
	c1.2,0.5,2.6,0.9,3.9,1.3c0.1-0.1,0.2-0.2,0.3-0.2c-0.2-0.5-0.3-1.3-0.7-1.5C34.7,130.3,33.5,130,31.9,129.5z M17.3,130.7
	c1.3-0.1,1.3-0.3,1-1.6C17.2,129.2,17.1,129.9,17.3,130.7z M17.3,128.3c1.4,0.1,1.2-0.8,1.1-1.6C17.3,126.7,17.1,127.3,17.3,128.3z
	 M15.5,128.9c1.2-0.2,1.3-0.2,1-1.6C15.3,127.6,15.3,127.6,15.5,128.9z M16.6,129.8c-1.3,0.2-1.4,0.4-1,1.6
	C16.9,131.4,16.7,130.6,16.6,129.8z M14.7,130.4c-1.1,0-1.3,0.6-1,1.5C14.8,131.9,14.9,131.8,14.7,130.4z M14.7,127.9
	c-1.3,0.2-1.4,0.4-1,1.6C15,129.6,14.8,128.7,14.7,127.9z"/>
<rect x="3.3" y="136.9" class="st3" width="43.4" height="6.4"/>
<text transform="matrix(1 0 0 1 3.2862 142.5835)" class="st7"><tspan x="0" y="0" class="st8 st4 st5">Environment</tspan></text>
</svg>
